<?xml version="1.0" standalone="no"?>
<!DOCTYPE svg PUBLIC "-//W3C//DTD SVG 20010904//EN"
 "http://www.w3.org/TR/2001/REC-SVG-20010904/DTD/svg10.dtd">
<svg version="1.0" xmlns="http://www.w3.org/2000/svg"
 width="600.000000pt" height="600.000000pt" viewBox="0 0 600.000000 600.000000"
 preserveAspectRatio="xMidYMid meet">

<g transform="translate(0.000000,600.000000) scale(0.100000,-0.100000)"
fill="#000000" stroke="none">
<path d="M1543 4672 c-48 -3 -53 -5 -53 -27 0 -13 -4 -27 -10 -30 -5 -3 -10 1
-10 9 0 20 8 21 -90 -13 -54 -19 -87 -36 -91 -47 -4 -11 -8 -13 -8 -6 -1 7
-12 17 -25 23 -20 9 -33 6 -82 -23 -109 -61 -102 -53 -74 -77 35 -28 17 -26
-27 4 -37 25 -56 23 -81 -8 -9 -11 -9 -25 2 -60 17 -57 4 -63 -14 -7 -15 45
-20 48 -43 22 -12 -14 -17 -38 -17 -88 0 -38 -5 -76 -10 -84 -5 -8 -10 -12
-10 -8 0 3 -25 0 -56 -9 -31 -8 -59 -12 -61 -9 -8 7 43 26 70 26 37 0 45 13
48 77 2 33 1 59 -3 57 -26 -16 -132 -166 -171 -241 -26 -50 -47 -93 -47 -96 0
-3 19 -8 43 -12 56 -10 60 -13 44 -38 -34 -54 -73 -316 -49 -331 11 -7 16 13
27 114 19 181 121 387 260 525 126 126 287 213 463 250 64 13 262 15 1542 15
1291 0 1477 -2 1537 -16 363 -82 627 -347 709 -713 13 -57 15 -104 11 -215 -3
-77 -8 -154 -11 -171 -3 -16 0 -10 6 15 6 25 12 46 13 48 1 1 24 -7 50 -18 35
-15 45 -23 37 -33 -6 -6 -13 -30 -18 -51 -4 -22 -13 -51 -20 -65 -8 -14 -14
-30 -14 -35 0 -4 -19 -47 -42 -95 l-42 -86 -10 83 -9 84 -31 -58 -31 -59 33
-30 c31 -28 33 -32 21 -58 -9 -19 -28 -33 -67 -47 -35 -13 -73 -38 -101 -67
-25 -25 -64 -61 -87 -79 -34 -29 -40 -39 -38 -66 l3 -33 -10 31 -11 31 -76
-44 c-42 -23 -81 -43 -87 -44 -5 -1 10 -7 35 -15 l45 -14 -62 5 c-85 6 -97 1
-76 -33 l17 -27 -31 29 -31 28 -21 -38 c-18 -34 -20 -36 -15 -10 6 27 5 28
-17 23 -13 -3 -46 -9 -72 -13 -44 -6 -48 -9 -45 -32 2 -15 -3 -27 -11 -30 -8
-3 -11 0 -7 6 9 15 -76 41 -166 52 -61 7 -89 6 -128 -6 -28 -8 -57 -13 -63
-11 -7 2 11 11 38 19 29 9 41 16 28 17 -12 1 -52 12 -90 26 l-67 24 -36 -20
-35 -21 28 24 c25 22 26 26 12 38 -8 7 -13 15 -10 18 2 3 11 -1 20 -8 9 -7 18
-10 21 -7 3 3 -8 13 -25 22 -29 14 -31 14 -31 -2 -1 -10 -8 -29 -16 -43 l-15
-25 5 32 c3 18 1 35 -4 38 -6 4 -11 -8 -11 -27 -1 -26 -4 -21 -13 24 -8 43
-17 62 -36 75 -55 37 -135 111 -178 163 -25 30 -49 54 -54 52 -5 -1 -25 2 -44
7 -31 9 -34 8 -34 -12 -1 -21 -1 -21 -15 -4 -12 17 -33 19 -180 23 -157 4
-168 6 -203 29 -52 35 -129 35 -190 -1 -43 -25 -49 -26 -234 -28 l-190 -1 -30
-35 c-16 -19 -37 -47 -46 -62 -9 -16 -24 -28 -34 -28 -10 0 -18 -4 -18 -9 0
-9 -51 -60 -115 -116 -32 -28 -156 -105 -169 -105 -5 0 -5 7 -2 16 3 9 2 12
-5 9 -5 -4 -8 -12 -6 -18 2 -7 -9 -21 -24 -33 -16 -11 -26 -23 -23 -26 2 -3
-15 -1 -38 4 -60 14 -82 13 -175 -6 -58 -12 -118 -16 -203 -14 l-121 3 6 -22
c5 -20 1 -23 -22 -23 -53 0 -269 71 -284 93 -3 5 -9 8 -13 7 -4 -1 -42 20 -85
48 -73 46 -78 52 -83 90 -5 30 -15 49 -41 72 -39 34 -120 141 -156 205 -12 22
-15 30 -6 18 9 -12 25 -32 36 -44 10 -12 19 -26 19 -31 0 -5 5 -6 10 -3 6 3
10 2 10 -2 0 -5 22 -32 50 -62 28 -30 50 -50 50 -46 0 4 -21 30 -46 58 -115
128 -214 370 -214 523 0 56 -18 38 -22 -22 -1 -31 -1 -58 1 -60 3 -3 6 -10 7
-17 5 -24 65 -179 84 -218 19 -36 19 -39 3 -39 -10 0 -34 4 -53 10 -32 9 -37
15 -54 70 -11 33 -22 60 -26 60 -4 0 -17 51 -29 114 -24 121 -30 246 -19 361
4 46 4 58 -2 35 -21 -86 -29 -220 -18 -321 42 -428 331 -780 738 -902 214 -65
431 -60 644 12 197 67 388 208 506 374 l33 47 472 0 472 0 32 -45 c54 -75 137
-160 214 -218 420 -321 1010 -279 1383 99 76 78 128 150 118 166 -4 6 -3 8 4
4 13 -8 72 94 108 189 82 219 87 493 12 710 -23 68 -88 200 -113 230 -8 11 4
-18 29 -65 45 -84 71 -164 81 -248 3 -24 14 -61 25 -82 24 -47 25 -57 5 -40
-20 16 -19 6 1 -14 14 -15 13 -16 -8 -15 -41 2 -73 15 -70 29 7 31 -24 149
-55 213 -19 37 -31 72 -28 77 5 8 -52 114 -86 159 -11 13 -16 28 -12 35 5 7 2
7 -8 -1 -12 -10 -20 -7 -42 17 -15 15 -27 33 -27 39 0 32 -54 118 -88 140
-107 70 -158 93 -254 117 -57 14 -112 27 -123 31 -16 4 -18 3 -7 -8 20 -22 14
-29 -15 -16 -20 8 -159 13 -473 17 -436 5 -446 5 -489 28 -31 15 -62 22 -103
22 -55 0 -58 -1 -48 -19 13 -26 13 -38 -1 -24 -8 8 -20 8 -35 3 -13 -5 -214
-9 -448 -10 -329 0 -426 3 -429 13 -4 9 -6 9 -6 0 -1 -17 -332 -18 -364 -2
-16 9 -22 9 -25 0 -5 -16 -22 -14 -22 4 0 19 -13 19 -51 -1 -17 -8 -36 -13
-42 -11 -7 3 5 12 25 21 73 32 57 37 -117 36 l-166 -2 -21 -29 c-29 -38 -45
-38 -18 1 l21 30 -62 0 -61 0 6 -30 c7 -37 0 -39 -16 -2 -12 25 -17 27 -65 24z
m3839 -1051 c-7 -4 -13 -26 -14 -49 l-1 -42 -41 38 -41 37 50 16 c49 15 72 16
47 0z m-4521 -578 c13 -16 12 -17 -3 -4 -10 7 -18 15 -18 17 0 8 8 3 21 -13z"/>
<path d="M4438 4663 c12 -2 30 -2 40 0 9 3 -1 5 -23 4 -22 0 -30 -2 -17 -4z"/>
<path d="M1400 4646 c-96 -27 -130 -39 -130 -48 0 -12 6 -11 110 27 95 34 105
45 20 21z"/>
<path d="M4508 4653 c7 -3 16 -2 19 1 4 3 -2 6 -13 5 -11 0 -14 -3 -6 -6z"/>
<path d="M1085 4545 c-22 -14 -36 -25 -31 -25 10 0 76 40 76 46 0 6 -2 5 -45
-21z"/>
<path d="M4260 4283 c0 -5 19 -53 43 -107 l42 -99 90 -36 c97 -38 100 -39 94
-45 -2 -2 -42 11 -89 29 -47 18 -88 31 -91 29 -4 -2 -15 -35 -24 -74 -9 -38
-21 -70 -25 -70 -4 0 1 30 11 67 11 37 19 71 19 75 0 4 -29 -4 -65 -17 -36
-14 -71 -25 -78 -24 -6 0 21 13 62 29 40 16 76 31 78 34 6 6 -77 196 -86 196
-17 0 -53 -35 -76 -74 -90 -154 17 -340 195 -339 162 2 268 166 203 314 -25
55 -32 61 -118 86 -52 15 -82 19 -118 13 -38 -6 -45 -4 -36 7 9 10 7 13 -10
13 -11 0 -21 -3 -21 -7z"/>
<path d="M1483 4212 c-12 -9 -27 -30 -32 -45 -14 -37 -15 -280 -1 -272 6 3 10
23 10 43 l1 37 63 -70 c63 -69 64 -70 74 -45 5 14 29 69 52 124 43 101 46 131
21 198 -8 21 -14 23 -59 20 l-51 -4 24 -48 24 -48 -65 -32 c-36 -17 -68 -30
-70 -28 -2 3 23 17 56 33 33 16 60 33 60 37 0 26 -42 88 -59 88 -11 0 -21 7
-23 15 -2 12 -7 11 -25 -3z"/>
<path d="M1588 4223 c7 -3 16 -2 19 1 4 3 -2 6 -13 5 -11 0 -14 -3 -6 -6z"/>
<path d="M1813 4205 c1 -14 -3 -19 -13 -16 -8 3 -39 7 -69 9 -45 3 -53 2 -48
-11 3 -9 11 -35 17 -58 7 -24 31 -66 54 -93 24 -28 55 -69 71 -91 l28 -40 -29
31 c-16 17 -47 52 -70 79 l-41 49 27 -139 c15 -77 32 -162 37 -190 l9 -50 41
74 c23 41 39 79 36 83 -2 5 -4 80 -4 167 2 155 1 160 -23 187 -21 25 -24 26
-23 9z"/>
<path d="M1645 3939 l-49 -120 44 -176 44 -176 42 89 c24 49 43 100 43 114 1
27 -64 379 -71 385 -2 3 -26 -50 -53 -116z"/>
<path d="M661 4009 c-6 -18 -11 -37 -10 -43 0 -6 7 7 15 28 8 22 12 41 10 43
-2 2 -9 -10 -15 -28z"/>
<path d="M4020 3862 l25 -21 -35 9 c-40 12 -110 13 -110 3 0 -4 14 -45 32 -91
l32 -85 49 52 c26 28 54 51 61 51 7 0 27 -11 46 -25 40 -30 47 -27 26 12 -29
53 -75 93 -126 108 l-25 8 25 -21z"/>
<path d="M2177 3841 c5 -21 4 -23 -13 -17 -10 4 -35 10 -54 12 -26 4 -21 0 21
-14 77 -26 83 -30 67 -50 -10 -12 -10 -14 0 -8 28 17 9 -13 -33 -53 -50 -47
-51 -51 -30 -136 8 -33 14 -63 15 -67 0 -5 -65 -8 -144 -8 -109 0 -148 -3
-158 -14 -18 -18 -24 -236 -6 -236 6 0 4 -8 -6 -19 -10 -11 -13 -20 -7 -22 7
-3 2 -17 -11 -36 -21 -30 -28 -33 -83 -34 -84 -3 -197 1 -217 7 -19 6 -63 62
-55 70 2 3 40 -3 83 -12 44 -9 96 -20 118 -24 l39 -8 -7 52 c-3 28 -9 86 -13
129 -3 42 -8 77 -10 77 -1 0 -42 -13 -90 -30 -118 -41 -119 -41 -114 21 2 30
-2 56 -8 62 -8 8 -69 14 -164 17 l-151 5 -24 35 c-20 30 -23 46 -23 125 2 152
1 161 -9 145 -17 -26 -12 -258 5 -295 23 -48 49 -55 205 -55 l140 0 0 -136 c0
-150 11 -192 56 -213 31 -14 288 -15 315 -1 40 22 49 61 49 210 l0 140 140 0
c149 0 188 9 210 49 5 11 10 83 10 160 0 134 -1 141 -24 168 -25 27 -25 28
-19 4z"/>
<path d="M3770 3813 c-101 -128 -42 -319 111 -363 76 -22 146 -6 209 47 53 46
79 102 80 171 0 52 -15 72 -23 30 -4 -22 -4 -22 -6 2 -1 16 -13 33 -34 48 -18
12 -36 22 -39 22 -3 0 -27 -25 -53 -55 -41 -49 -49 -66 -66 -142 -10 -47 -20
-88 -22 -89 -2 -2 -20 1 -41 7 -61 17 -111 76 -136 159 l-21 72 35 59 c38 64
40 75 6 32z"/>
<path d="M1865 3780 c3 -5 8 -10 11 -10 2 0 4 5 4 10 0 6 -5 10 -11 10 -5 0
-7 -4 -4 -10z"/>
<path d="M4559 3743 c-50 -151 58 -301 216 -302 45 -1 118 29 153 62 53 49 83
150 63 212 l-9 30 -1 -32 c-1 -43 -29 -122 -53 -152 -10 -14 -34 -35 -53 -48
l-34 -23 -42 76 c-46 84 -52 83 -64 -1 -7 -55 -25 -97 -25 -60 0 11 7 47 14
80 8 33 13 61 11 63 -1 2 -30 -8 -64 -22 -68 -29 -83 -32 -79 -13 1 6 -4 36
-11 65 -7 29 -10 64 -7 77 10 39 -1 29 -15 -12z"/>
<path d="M4966 3767 c3 -10 9 -15 12 -12 3 3 0 11 -7 18 -10 9 -11 8 -5 -6z"/>
<path d="M1861 3667 c-13 -21 -12 -21 5 -5 10 10 16 20 13 22 -3 3 -11 -5 -18
-17z"/>
<path d="M1795 3669 c-4 -6 -5 -12 -2 -15 2 -3 7 2 10 11 7 17 1 20 -8 4z"/>
<path d="M1779 3573 l-24 -28 28 24 c25 23 32 31 24 31 -2 0 -14 -12 -28 -27z"/>
<path d="M1731 3523 c-10 -26 -10 -27 4 -9 8 11 15 23 15 28 0 15 -7 8 -19
-19z"/>
<path d="M4204 3415 c-21 -19 -33 -34 -26 -35 8 0 12 -19 12 -61 0 -71 -6 -70
126 -19 62 24 86 40 112 72 23 29 30 44 22 52 -18 18 -132 20 -173 3 -37 -16
-47 -11 -25 11 28 28 -12 9 -48 -23z"/>
<path d="M4460 3439 c0 -5 5 -7 10 -4 6 3 10 8 10 11 0 2 -4 4 -10 4 -5 0 -10
-5 -10 -11z"/>
<path d="M4469 3402 c-13 -15 -35 -39 -48 -54 l-23 -27 81 -40 c44 -23 81 -43
81 -46 0 -7 -38 9 -91 37 -81 43 -74 49 -104 -78 -15 -63 -31 -117 -36 -120
-12 -7 -13 -11 20 115 20 75 26 111 18 111 -7 0 -46 -13 -87 -28 l-75 -28 1
-53 c2 -62 -5 -60 -17 5 -5 27 -19 59 -32 73 -12 15 -14 20 -4 12 24 -19 26
-14 20 43 -6 48 -6 49 -20 23 -38 -74 -24 -174 35 -239 142 -157 396 -62 394
147 0 66 -27 127 -73 162 -13 11 -20 8 -40 -15z"/>
<path d="M5227 3378 c-9 -28 -12 -47 -8 -42 11 12 34 84 29 89 -2 3 -12 -18
-21 -47z"/>
<path d="M3562 3193 c15 -28 6 -38 -21 -24 -17 9 -20 9 -15 -3 5 -13 74 -29
74 -16 0 3 -12 19 -26 35 -14 17 -20 21 -12 8z"/>
<path d="M2608 3173 c7 -3 16 -2 19 1 4 3 -2 6 -13 5 -11 0 -14 -3 -6 -6z"/>
<path d="M2400 3140 c-6 -11 -8 -20 -6 -20 3 0 10 9 16 20 6 11 8 20 6 20 -3
0 -10 -9 -16 -20z"/>
<path d="M5109 3143 c-13 -16 -12 -17 4 -4 9 7 17 15 17 17 0 8 -8 3 -21 -13z"/>
<path d="M2350 3075 c-13 -14 -18 -25 -11 -25 17 0 54 37 43 44 -5 3 -20 -6
-32 -19z"/>
<path d="M2376 3055 c-3 -9 1 -18 10 -22 19 -7 26 0 18 21 -8 20 -20 21 -28 1z"/>
<path d="M4990 3003 c-23 -24 -23 -25 -3 -15 22 12 38 30 31 37 -2 2 -14 -8
-28 -22z"/>
<path d="M4850 2890 l-25 -21 28 12 c15 7 27 16 27 21 0 11 -1 10 -30 -12z"/>
<path d="M4380 2716 c0 -2 14 -9 30 -15 24 -8 30 -7 30 5 0 9 -10 14 -30 14
-16 0 -30 -2 -30 -4z"/>
<path d="M1320 1772 c0 -538 3 -682 13 -696 11 -16 28 -17 163 -14 82 3 155 8
162 12 10 6 13 68 12 259 -2 511 -3 489 20 470 11 -10 20 -22 20 -28 0 -10 51
-116 60 -125 8 -8 27 -40 51 -85 12 -22 24 -42 28 -45 3 -3 14 -22 23 -42 23
-49 41 -48 69 2 13 22 26 40 31 40 4 0 8 7 8 15 0 17 47 112 58 117 10 4 62
105 62 121 1 11 34 57 42 57 1 0 2 -165 1 -367 -3 -427 -9 -403 90 -398 34 2
69 4 77 3 75 -4 163 1 171 9 7 7 10 123 9 329 -1 176 -2 387 -2 469 -1 118 -3
143 -11 115 -6 -19 -11 -73 -13 -119 -3 -95 -10 -131 -24 -131 -6 0 -10 44
-11 108 -1 132 -10 207 -26 207 -6 0 -15 3 -19 8 -4 4 0 7 9 7 10 0 17 7 17
15 0 8 -8 15 -17 15 -16 1 -15 2 2 12 11 6 21 12 23 13 7 6 -12 35 -24 35 -13
0 -37 -34 -29 -42 2 -2 5 -45 6 -96 1 -50 5 -89 10 -86 5 3 9 0 9 -5 0 -6 -4
-11 -10 -11 -5 0 -10 -16 -10 -36 0 -24 -4 -34 -12 -31 -9 2 -13 25 -12 71 1
53 -2 66 -12 62 -8 -3 -14 -1 -14 3 0 5 6 11 13 14 13 4 17 141 4 154 -12 12
-20 -6 -19 -42 1 -19 -3 -35 -8 -35 -5 0 -7 -19 -4 -42 15 -127 19 -178 12
-178 -4 0 -8 -9 -8 -21 0 -11 -4 -18 -8 -15 -5 3 -7 39 -6 81 3 69 -9 125 -25
125 -4 0 -5 -18 -3 -40 3 -25 0 -40 -7 -40 -12 0 -13 18 -13 187 0 87 -4 115
-15 125 -13 10 -14 8 -12 -12 2 -14 -3 -36 -10 -49 -7 -13 -10 -36 -7 -52 3
-16 9 -42 12 -58 5 -23 1 -32 -22 -50 -15 -12 -30 -18 -33 -15 -3 4 0 9 7 11
10 4 10 8 1 19 -9 11 -7 14 15 14 17 0 25 4 20 11 -12 20 -31 132 -26 152 8
29 -15 13 -34 -25 -16 -31 -15 -109 2 -153 5 -13 2 -16 -11 -14 -20 4 -37 48
-36 92 1 15 -4 27 -9 27 -6 0 -9 4 -6 9 3 5 -1 11 -8 14 -8 3 -16 1 -18 -5 -3
-7 -10 -8 -17 -4 -7 5 -10 15 -7 25 4 9 -7 0 -24 -19 -22 -26 -29 -41 -24 -60
3 -14 2 -22 -2 -18 -7 8 -64 -65 -64 -82 0 -17 -18 -11 -25 9 -3 11 -12 22
-20 25 -8 3 -15 14 -15 26 0 11 -14 34 -30 52 -17 18 -27 25 -24 16 9 -26 -23
-23 -36 3 -9 16 -8 25 6 40 25 28 4 48 -31 29 -14 -7 -28 -10 -32 -5 -5 4 -2
10 5 12 6 3 12 12 12 20 0 9 6 13 15 9 8 -3 15 -1 15 5 0 10 -29 60 -41 69 -3
3 -12 20 -20 38 -8 17 -17 32 -20 32 -4 0 -10 12 -14 27 -3 15 -9 22 -13 16
-9 -14 -298 -17 -307 -3 -3 5 -10 10 -16 10 -5 0 -9 -261 -9 -678z m265 628
c-3 -5 -15 -10 -25 -10 -10 0 -22 5 -25 10 -4 6 7 10 25 10 18 0 29 -4 25 -10z
m-44 -120 c20 -11 26 -30 8 -30 -11 0 -39 24 -39 34 0 9 9 7 31 -4z m-91 -30
c0 -5 -2 -10 -4 -10 -3 0 -8 5 -11 10 -3 6 -1 10 4 10 6 0 11 -4 11 -10z m300
-64 c0 -11 -19 -15 -25 -6 -3 5 1 10 9 10 9 0 16 -2 16 -4z m364 -173 c-1 -7
-2 -31 -2 -54 -2 -52 -25 -48 -33 7 -6 34 -7 36 -14 17 -4 -13 -11 -23 -16
-23 -5 0 -9 -11 -9 -25 0 -34 -16 -31 -29 5 -8 25 -7 32 4 35 48 15 49 15 37
27 -20 20 -14 26 26 25 23 -1 37 -7 36 -14z m-114 -73 c0 -5 -4 -10 -10 -10
-5 0 -10 5 -10 10 0 6 5 10 10 10 6 0 10 -4 10 -10z m155 -60 c3 -5 -1 -10
-10 -10 -9 0 -13 5 -10 10 3 6 8 10 10 10 2 0 7 -4 10 -10z m-215 -74 c0 -3
-4 -8 -10 -11 -5 -3 -10 -1 -10 4 0 6 5 11 10 11 6 0 10 -2 10 -4z m2 -78
c-15 -15 -26 -4 -18 18 5 13 9 15 18 6 9 -9 9 -15 0 -24z m435 -70 c-3 -8 -6
-5 -6 6 -1 11 2 17 5 13 3 -3 4 -12 1 -19z m-196 -231 c-1 -12 -15 -9 -19 4
-3 6 1 10 8 8 6 -3 11 -8 11 -12z m179 -32 c0 -8 -4 -15 -10 -15 -5 0 -10 7
-10 15 0 8 5 15 10 15 6 0 10 -7 10 -15z m80 5 c0 -5 -4 -10 -10 -10 -5 0 -10
5 -10 10 0 6 5 10 10 10 6 0 10 -4 10 -10z m-20 -116 c0 -8 -4 -12 -10 -9 -5
3 -10 10 -10 16 0 5 5 9 10 9 6 0 10 -7 10 -16z m0 -128 c0 -8 -5 -27 -11 -43
-10 -27 -11 -27 -24 -9 -12 16 -12 22 2 42 17 27 33 31 33 10z"/>
<path d="M2220 2438 c0 -10 6 -18 14 -18 7 0 19 -13 25 -28 17 -40 48 -37 49
5 1 34 -1 35 -48 35 -14 0 -28 5 -32 12 -5 7 -8 5 -8 -6z"/>
<path d="M2639 2434 c-1 -5 -3 -20 -4 -34 -1 -14 -6 -38 -10 -55 -4 -16 -9
-46 -12 -65 -3 -19 -10 -41 -16 -48 -5 -7 -7 -15 -4 -18 8 -9 28 6 22 16 -3 4
2 10 10 14 8 3 15 18 15 33 0 24 4 28 32 30 18 2 35 8 37 14 2 6 8 0 15 -13
14 -28 46 -36 62 -14 10 15 12 14 18 -9 5 -21 -1 -35 -31 -70 -21 -24 -44 -44
-50 -45 -7 0 -13 -5 -13 -11 0 -5 -4 -7 -10 -4 -5 3 -10 -1 -10 -9 0 -25 20
-29 43 -8 12 11 29 17 37 14 13 -5 13 -3 1 12 -21 25 -5 31 20 7 13 -12 30
-19 39 -16 17 7 20 8 38 6 8 -1 11 -11 7 -31 l-5 -30 111 0 110 0 -23 -31
c-13 -17 -28 -40 -35 -51 -6 -11 -17 -24 -24 -28 -9 -6 -7 -15 10 -35 11 -15
21 -38 21 -50 0 -13 7 -25 15 -29 8 -3 19 -16 24 -29 5 -13 26 -32 46 -41 29
-14 34 -20 24 -32 -15 -18 -29 -18 -29 0 0 8 -13 21 -30 30 l-30 14 0 -43 c0
-24 -4 -47 -10 -50 -5 -3 -10 3 -10 14 0 15 -6 21 -21 21 -16 0 -19 4 -14 18
12 29 13 46 4 67 -7 18 -8 18 -8 2 -1 -10 -6 -15 -11 -12 -6 3 -15 -6 -20 -20
-13 -34 -13 -35 6 -35 13 0 14 -3 4 -15 -8 -9 -10 -28 -6 -50 4 -22 3 -35 -4
-35 -9 0 -15 28 -11 58 1 7 -3 26 -10 41 -11 24 -15 26 -26 15 -31 -31 -45
-108 -48 -274 -3 -104 -8 -166 -14 -168 -12 -4 -12 4 -11 218 1 79 5 149 11
156 6 7 4 16 -6 24 -13 11 -15 8 -15 -15 0 -17 -5 -25 -12 -22 -7 2 -24 -12
-38 -32 -24 -35 -26 -40 -29 -61 0 -5 -8 -10 -16 -10 -12 0 -15 -15 -15 -71 0
-44 4 -68 10 -64 13 8 13 3 0 -30 -10 -26 -9 -26 21 -20 22 5 30 3 28 -7 -4
-31 1 -39 21 -33 25 8 27 -10 3 -19 -10 -3 -24 -9 -32 -12 -10 -5 -12 -2 -8 9
4 11 -5 22 -30 37 -19 11 -33 23 -30 26 3 3 2 18 -3 34 -5 16 -4 32 2 38 5 5
6 21 2 36 l-6 27 -34 -38 c-54 -60 -114 -152 -114 -174 0 -11 7 -22 15 -25 8
-4 15 -12 15 -20 0 -8 -7 -14 -15 -14 -12 0 -15 -13 -15 -61 0 -37 4 -58 10
-54 6 3 10 -1 10 -9 0 -26 19 -28 43 -3 l22 25 12 -25 c11 -22 8 -28 -24 -64
l-35 -39 201 0 c187 0 202 1 199 18 -2 9 -7 20 -13 25 -5 4 1 5 15 3 19 -3 24
-9 23 -25 -3 -21 1 -22 50 -19 l52 3 -2 47 c-2 39 1 50 19 63 34 23 41 18 18
-13 -15 -20 -20 -40 -18 -63 l3 -34 183 -3 182 -2 0 134 c0 98 -3 136 -12 140
-10 5 -10 7 0 12 17 8 15 39 -4 54 -11 10 -14 10 -12 1 3 -12 -3 -12 -338 -11
-81 0 -123 4 -119 10 3 6 -1 10 -9 10 -18 0 -21 16 -5 25 19 12 69 87 63 96
-3 5 1 9 8 9 12 0 24 16 64 82 6 10 26 35 44 55 25 27 33 45 32 67 -1 21 1 27
7 18 6 -10 19 0 52 42 24 31 47 56 51 56 5 0 8 8 8 17 0 9 13 31 29 48 16 16
45 55 65 85 19 30 45 64 56 75 18 19 20 34 20 152 0 117 -2 132 -17 136 -17 4
-17 5 0 6 12 1 17 10 17 31 0 31 -9 37 -27 19 -6 -6 -92 -9 -251 -7 l-242 3
-11 -27 c-6 -16 -15 -28 -20 -28 -12 0 1 52 15 63 6 5 2 5 -9 1 -29 -12 -298
-13 -312 -1 -7 5 -14 6 -14 1z m107 -41 c-10 -10 -19 5 -10 18 6 11 8 11 12 0
2 -7 1 -15 -2 -18z m-71 -53 c-3 -5 -14 -10 -23 -10 -15 0 -15 2 -2 10 20 13
33 13 25 0z m552 -48 c-10 -11 -17 -36 -17 -60 0 -23 -4 -42 -10 -42 -17 0
-12 82 7 102 9 10 21 18 26 18 6 0 3 -8 -6 -18z m-327 -7 c7 -8 19 -15 26 -15
24 0 15 -17 -11 -22 -13 -3 -22 -1 -19 3 3 5 -1 9 -9 9 -22 0 -41 27 -25 33
21 9 25 8 38 -8z m110 -30 c0 -8 -4 -15 -10 -15 -5 0 -10 7 -10 15 0 8 5 15
10 15 6 0 10 -7 10 -15z m101 -28 c-1 -4 -1 -29 -1 -57 0 -27 -4 -50 -10 -50
-6 0 -10 27 -10 61 0 39 4 59 11 57 6 -2 10 -7 10 -11z m-91 -92 c0 -8 -4 -15
-10 -15 -5 0 -10 7 -10 15 0 8 5 15 10 15 6 0 10 -7 10 -15z m-110 -5 c0 -5
-5 -10 -11 -10 -5 0 -7 5 -4 10 3 6 8 10 11 10 2 0 4 -4 4 -10z m300 -407 c0
-3 -7 -2 -16 1 -11 4 -20 -6 -33 -35 -14 -32 -20 -37 -25 -23 -4 10 -2 21 5
24 6 4 12 19 12 32 2 23 4 24 30 16 15 -6 27 -12 27 -15z m-413 -185 c-3 -8
-6 -5 -6 6 -1 11 2 17 5 13 3 -3 4 -12 1 -19z m-12 -28 c3 -5 1 -10 -4 -10 -6
0 -11 5 -11 10 0 6 2 10 4 10 3 0 8 -4 11 -10z m-95 -38 c0 -15 -2 -15 -10 -2
-13 20 -13 33 0 25 6 -3 10 -14 10 -23z m220 -33 c0 -11 -4 -17 -10 -14 -5 3
-10 13 -10 21 0 8 5 14 10 14 6 0 10 -9 10 -21z m-230 -9 c0 -5 -4 -10 -10
-10 -5 0 -10 5 -10 10 0 6 5 10 10 10 6 0 10 -4 10 -10z m17 -72 c-3 -8 -6 -5
-6 6 -1 11 2 17 5 13 3 -3 4 -12 1 -19z m516 -33 c4 -8 2 -17 -3 -20 -6 -4
-10 3 -10 14 0 25 6 27 13 6z m-343 1 c0 -15 -24 -66 -31 -66 -13 0 -11 14 3
28 8 8 8 15 -2 27 -10 13 -9 15 9 15 11 0 21 -2 21 -4z m-223 -32 c-3 -3 -12
-4 -19 -1 -8 3 -5 6 6 6 11 1 17 -2 13 -5z m127 -9 c-4 -8 -8 -15 -10 -15 -2
0 -4 7 -4 15 0 8 4 15 10 15 5 0 7 -7 4 -15z m6 -131 c0 -8 9 -14 20 -14 11 0
20 -6 20 -14 0 -10 -13 -13 -44 -13 -31 1 -42 5 -39 14 3 7 0 13 -6 13 -15 0
-14 27 2 33 20 6 47 -4 47 -19z m670 2 c0 -11 -19 -15 -25 -6 -3 5 1 10 9 10
9 0 16 -2 16 -4z m-550 -32 c0 -8 -4 -14 -9 -14 -11 0 -22 26 -14 34 9 9 23
-3 23 -20z m570 2 c0 -16 -34 -31 -50 -21 -6 4 -7 11 -4 17 4 6 10 5 16 -3 7
-12 11 -11 21 4 14 21 17 21 17 3z"/>
<path d="M3640 2411 c0 -20 6 -30 20 -34 11 -3 20 -13 20 -24 -1 -17 -1 -17
-14 0 -7 9 -18 17 -25 17 -17 0 -13 -31 9 -73 11 -20 20 -50 20 -65 0 -16 7
-37 15 -48 8 -10 15 -34 15 -51 0 -18 5 -33 10 -33 6 0 10 -9 10 -19 0 -11 5
-23 10 -26 6 -3 10 -17 10 -30 0 -14 9 -44 19 -67 11 -24 23 -60 26 -80 3 -21
11 -43 18 -51 7 -7 20 -28 29 -46 16 -29 16 -34 2 -56 -9 -14 -14 -30 -11 -37
2 -7 -6 -27 -19 -45 -14 -18 -27 -47 -30 -65 -5 -29 -16 -62 -44 -133 -17 -41
-19 -106 -4 -112 21 -8 17 -33 -6 -33 -12 0 -20 7 -21 18 0 13 -2 14 -6 2 -4
-8 -16 -31 -28 -50 -12 -19 -25 -53 -29 -75 -4 -22 -13 -43 -19 -47 -9 -6 -8
-11 3 -17 8 -6 12 -11 10 -13 -3 -2 -14 -8 -25 -14 -11 -6 -20 -17 -20 -25 0
-11 33 -15 172 -17 162 -2 174 -1 193 18 11 11 20 33 20 50 0 17 9 50 20 72
11 23 20 51 20 62 0 12 14 50 30 84 17 35 30 71 30 81 0 9 5 22 11 28 5 5 13
36 16 67 3 31 10 59 14 62 14 8 10 24 -6 24 -8 0 -15 7 -15 15 0 8 7 15 15 15
9 0 18 -7 21 -15 4 -8 16 -15 28 -15 25 0 33 -35 10 -44 -13 -5 -13 -9 0 -28
9 -12 16 -31 16 -41 0 -10 9 -37 20 -59 11 -23 20 -50 20 -60 0 -10 8 -37 18
-61 10 -23 25 -62 33 -87 12 -40 18 -45 47 -48 17 -2 32 -7 32 -13 0 -5 7 -9
15 -9 20 0 19 -17 -2 -38 -12 -12 -18 -13 -21 -4 -7 21 -22 2 -22 -29 l0 -29
179 0 c107 0 182 4 186 10 7 11 -12 51 -29 62 -8 5 -8 10 0 18 9 9 5 24 -12
61 -13 27 -24 54 -24 59 0 6 -9 30 -20 52 -11 23 -20 48 -20 55 0 8 -11 35
-25 61 l-25 47 0 -33 c0 -17 -4 -32 -10 -32 -5 0 -10 16 -10 36 0 19 -4 33 -9
30 -5 -3 -15 1 -22 10 -11 13 -11 15 2 14 47 -7 66 14 35 39 -7 6 -17 30 -20
53 -4 23 -10 45 -14 48 -11 7 -52 67 -52 75 0 4 6 3 13 -4 11 -8 13 -5 10 17
-3 15 0 54 5 87 6 35 6 61 1 63 -17 7 -9 22 11 22 11 0 23 8 26 18 3 9 12 31
21 48 16 33 10 99 -8 88 -5 -3 -7 -9 -4 -14 3 -5 -4 -14 -16 -21 -20 -10 -21
-9 -15 7 6 15 5 17 -5 7 -17 -17 -29 -16 -29 2 0 8 6 15 14 15 7 0 17 10 21
23 4 13 8 17 12 10 10 -27 25 -12 21 22 -4 38 8 49 15 13 2 -13 5 3 6 35 1 45
-2 57 -14 57 -8 0 -15 -7 -15 -17 0 -28 -15 -3 -16 28 -2 29 9 38 21 19 17
-28 25 -3 23 70 -2 47 1 81 7 83 18 7 -17 37 -42 37 l-25 0 22 -18 c14 -11 20
-24 16 -31 -6 -9 -12 -7 -22 6 -8 10 -13 14 -12 8 2 -5 -2 -11 -7 -12 -19 -5
-44 8 -48 25 -3 9 -5 -15 -6 -55 -1 -62 2 -72 18 -78 13 -4 17 -12 13 -30 -5
-27 -17 -33 -25 -12 -3 6 -6 -9 -6 -35 -1 -27 4 -48 9 -48 6 0 4 -14 -5 -31
-9 -17 -19 -28 -23 -25 -3 4 -6 70 -6 149 -1 84 -5 144 -11 147 -6 3 -11 -25
-13 -72 -3 -74 -12 -97 -26 -62 -3 9 -4 20 0 25 3 5 1 9 -5 9 -5 0 -11 -28
-13 -62 -2 -40 -8 -63 -16 -66 -11 -3 -13 18 -8 109 5 108 4 112 -10 74 -8
-22 -14 -67 -13 -100 2 -85 0 -97 -11 -90 -5 3 -10 24 -10 46 0 22 -4 38 -9
35 -5 -3 -7 -15 -4 -26 3 -11 0 -26 -6 -33 -6 -8 -13 -38 -16 -68 -9 -83 -10
-87 -33 -119 -12 -16 -22 -36 -22 -43 0 -8 -7 -20 -15 -27 -28 -23 -42 -4 -49
69 -4 39 -11 73 -17 76 -5 4 -9 19 -9 35 0 16 -4 32 -10 35 -5 3 -10 19 -10
34 0 16 -7 34 -15 41 -8 7 -15 21 -15 30 0 10 -6 21 -12 23 -8 3 -9 6 -2 6 14
1 5 51 -13 69 -11 11 -13 9 -14 -15 -1 -29 -3 -26 -13 19 -4 16 -11 27 -17 25
-7 -1 -14 4 -16 11 -3 8 5 12 22 12 20 0 26 4 23 18 -2 10 -11 16 -23 14 -81
-10 -283 -13 -289 -3 -13 20 -26 11 -26 -18z m260 -21 c0 -4 -8 -11 -17 -14
-19 -8 -38 7 -29 22 7 11 46 4 46 -8z m540 -10 c0 -5 -4 -10 -10 -10 -5 0 -10
5 -10 10 0 6 5 10 10 10 6 0 10 -4 10 -10z m-509 -51 c-14 -24 -17 -26 -23
-11 -12 31 -8 40 16 40 23 0 23 -1 7 -29z m-91 -19 c0 -5 -2 -10 -4 -10 -3 0
-8 5 -11 10 -3 6 -1 10 4 10 6 0 11 -4 11 -10z m676 -22 c3 -4 -4 -9 -16 -13
-15 -5 -27 0 -41 16 -10 12 -19 23 -19 24 0 4 69 -21 76 -27z m-596 -28 c0 -5
-4 -10 -10 -10 -5 0 -10 5 -10 10 0 6 5 10 10 10 6 0 10 -4 10 -10z m446 -34
c-9 -14 -16 -32 -16 -41 0 -16 -68 -84 -85 -85 -5 0 8 17 28 38 25 26 37 47
37 67 0 15 3 25 7 22 3 -4 13 2 21 14 20 29 28 15 8 -15z m80 -23 c21 -28 16
-39 -6 -15 -11 12 -20 24 -20 27 0 11 13 4 26 -12z m-596 -42 c0 -6 -4 -13
-10 -16 -5 -3 -10 1 -10 9 0 9 5 16 10 16 6 0 10 -4 10 -9z m406 -143 c-8 -42
-15 -47 -32 -24 -9 13 -14 15 -14 6 0 -7 -2 -11 -5 -8 -12 11 17 54 37 55 18
2 19 -2 14 -29z m114 19 c0 -7 -9 -13 -20 -14 -11 -1 -20 3 -20 8 0 6 5 7 10
4 6 -3 10 -1 10 4 0 6 5 11 10 11 6 0 10 -6 10 -13z m16 -94 c-5 -12 -10 -13
-17 -6 -8 8 -7 18 2 34 12 21 14 22 17 6 2 -10 1 -25 -2 -34z m-137 -43 c5
-16 7 -30 3 -30 -4 0 -13 14 -19 30 -6 17 -8 30 -3 30 4 0 13 -13 19 -30z
m-232 -6 c-3 -3 -12 -4 -19 -1 -8 3 -5 6 6 6 11 1 17 -2 13 -5z m343 -49 c0
-5 -5 -3 -10 5 -5 8 -10 20 -10 25 0 6 5 3 10 -5 5 -8 10 -19 10 -25z m-160
-17 c0 -5 -4 -8 -10 -8 -5 0 -10 10 -10 23 0 18 2 19 10 7 5 -8 10 -18 10 -22z
m150 -20 c0 -6 -6 -5 -15 2 -22 18 -19 1 11 -66 25 -57 39 -104 30 -104 -24 0
-36 16 -36 48 0 20 -9 55 -21 79 -14 30 -19 52 -14 71 l7 27 19 -24 c10 -13
19 -28 19 -33z m-396 -3 c3 -8 17 -20 31 -25 30 -11 32 -26 5 -40 -16 -8 -20
-8 -20 3 0 8 -9 22 -20 32 -21 19 -27 45 -11 45 5 0 11 -7 15 -15z m86 2 c0
-8 9 -22 20 -32 24 -21 27 -47 5 -39 -17 7 -21 -11 -5 -21 6 -3 10 -12 10 -18
-1 -7 -10 -1 -21 12 -12 15 -16 27 -10 31 7 4 5 16 -4 34 -18 33 -19 46 -5 46
6 0 10 -6 10 -13z m60 -6 c0 -6 -4 -13 -10 -16 -5 -3 -10 1 -10 9 0 9 5 16 10
16 6 0 10 -4 10 -9z m160 -27 c0 -8 -4 -12 -10 -9 -5 3 -10 10 -10 16 0 5 5 9
10 9 6 0 10 -7 10 -16z m170 -34 c-8 -5 -19 -10 -25 -10 -5 0 -3 5 5 10 8 5
20 10 25 10 6 0 3 -5 -5 -10z m-169 -50 c5 0 9 -4 9 -9 0 -5 -9 -7 -20 -4 -11
3 -20 0 -20 -6 0 -6 -7 -11 -15 -11 -8 0 -15 4 -15 8 0 15 24 32 38 27 8 -3
18 -5 23 -5z m69 -10 c0 -5 -7 -10 -16 -10 -8 0 -12 5 -9 10 3 6 10 10 16 10
5 0 9 -4 9 -10z m80 -10 c0 -5 -4 -10 -10 -10 -5 0 -10 5 -10 10 0 6 5 10 10
10 6 0 10 -4 10 -10z m-115 -30 c3 -5 11 -10 16 -10 6 0 7 5 4 10 -3 6 -1 10
5 10 23 0 5 -45 -22 -54 -23 -8 -31 -6 -42 10 -10 13 -11 23 -4 31 13 16 34
17 43 3z m141 -67 c-7 -7 -26 7 -26 19 0 6 6 6 15 -2 9 -7 13 -15 11 -17z
m-463 -1 c-6 -4 -13 -20 -15 -36 -3 -34 -24 -46 -30 -19 -5 18 41 78 51 67 3
-3 0 -8 -6 -12z m472 -42 c3 -5 1 -10 -4 -10 -6 0 -11 5 -11 10 0 6 2 10 4 10
3 0 8 -4 11 -10z m-437 -63 c10 4 13 2 8 -8 -3 -8 -9 -22 -12 -32 -6 -18 -40
-21 -35 -3 2 5 -3 12 -10 17 -10 6 -10 11 1 24 8 10 17 12 23 6 5 -5 16 -7 25
-4z m470 -22 c-13 -30 -24 -32 -31 -6 -6 24 0 31 24 31 16 0 17 -3 7 -25z
m-651 -65 c2 -19 -8 -26 -20 -14 -7 7 2 34 12 34 4 0 7 -9 8 -20z m149 -78
c-3 -3 -6 0 -6 6 0 7 -6 12 -14 12 -9 0 -12 7 -9 21 6 21 7 21 20 -6 8 -15 12
-29 9 -33z m-256 -22 c0 -5 -4 -10 -10 -10 -5 0 -10 5 -10 10 0 6 5 10 10 10
6 0 10 -4 10 -10z m680 -11 c0 -5 -4 -9 -10 -9 -5 0 -10 7 -10 16 0 8 5 12 10
9 6 -3 10 -10 10 -16z m220 -126 c0 -18 -5 -33 -10 -33 -19 0 -37 24 -32 42 2
10 -1 18 -8 18 -10 0 -10 3 0 15 19 23 50 -3 50 -42z"/>
<path d="M4320 2380 c0 -33 4 -60 10 -60 5 0 8 26 7 60 -1 33 -5 60 -9 60 -5
0 -8 -27 -8 -60z"/>
<path d="M4360 2429 c0 -5 5 -7 10 -4 6 3 10 8 10 11 0 2 -4 4 -10 4 -5 0 -10
-5 -10 -11z"/>
<path d="M4579 2438 c-2 -9 -2 -10 -14 -52 -6 -23 -4 -32 10 -43 12 -8 14 -13
6 -13 -10 0 -12 -13 -9 -50 3 -27 1 -50 -3 -50 -9 0 -13 29 -9 65 1 11 -2 16
-6 12 -10 -9 -14 -149 -7 -189 3 -15 9 -26 13 -23 8 5 5 63 -5 94 -4 12 -2 21
4 21 6 0 11 -12 12 -27 l1 -28 9 30 c5 17 7 43 4 58 -7 39 4 77 22 77 13 0 13
-3 -1 -25 -11 -17 -14 -31 -8 -42 7 -12 11 -8 16 21 4 20 6 38 4 40 -2 2 6 13
16 25 11 12 14 21 8 21 -7 0 -12 17 -12 43 0 27 -3 37 -9 29 -4 -8 -12 -14
-16 -14 -4 0 -12 6 -16 14 -5 7 -9 10 -10 6z"/>
<path d="M2340 2410 c0 -19 3 -21 12 -12 9 9 9 15 0 24 -9 9 -12 7 -12 -12z"/>
<path d="M4650 2409 c0 -11 4 -18 10 -14 5 3 7 12 3 20 -7 21 -13 19 -13 -6z"/>
<path d="M2596 2402 c-4 -13 -5 -26 -2 -29 10 -11 18 4 14 29 l-4 23 -8 -23z"/>
<path d="M2085 2318 c-15 -18 -31 -43 -36 -56 -10 -25 -4 -46 11 -37 4 3 13
-2 20 -10 19 -23 26 -18 27 18 0 52 7 97 16 97 4 0 7 5 7 10 0 19 -18 10 -45
-22z"/>
<path d="M2145 2304 c-3 -25 -5 -48 -2 -50 2 -3 14 4 27 14 23 18 23 19 4 47
-10 16 -13 26 -6 22 6 -5 12 -4 12 2 0 6 -6 11 -14 11 -9 0 -16 -17 -21 -46z"/>
<path d="M2561 2324 c0 -11 3 -14 6 -6 3 7 2 16 -1 19 -3 4 -6 -2 -5 -13z"/>
<path d="M2590 2318 c0 -19 2 -20 10 -8 13 19 13 30 0 30 -5 0 -10 -10 -10
-22z"/>
<path d="M2285 2300 c-7 -12 2 -30 16 -30 5 0 9 9 9 20 0 21 -15 27 -25 10z"/>
<path d="M2338 2304 c-8 -14 7 -61 15 -47 4 6 3 21 -1 34 -5 12 -11 18 -14 13z"/>
<path d="M2430 2251 c0 -12 5 -21 10 -21 6 0 10 6 10 14 0 8 -4 18 -10 21 -5
3 -10 -3 -10 -14z"/>
<path d="M2760 2249 c0 -5 5 -7 10 -4 6 3 10 8 10 11 0 2 -4 4 -10 4 -5 0 -10
-5 -10 -11z"/>
<path d="M2295 2240 c3 -5 8 -10 11 -10 2 0 4 5 4 10 0 6 -5 10 -11 10 -5 0
-7 -4 -4 -10z"/>
<path d="M2380 2240 c0 -5 5 -10 11 -10 5 0 7 5 4 10 -3 6 -8 10 -11 10 -2 0
-4 -4 -4 -10z"/>
<path d="M2564 2199 c-3 -6 -1 -16 5 -22 8 -8 11 -5 11 11 0 24 -5 28 -16 11z"/>
<path d="M2332 2191 c4 -13 18 -16 19 -4 0 4 -5 9 -11 12 -7 2 -11 -2 -8 -8z"/>
<path d="M2375 2189 c-11 -17 1 -21 15 -4 8 9 8 15 2 15 -6 0 -14 -5 -17 -11z"/>
<path d="M2470 2190 c0 -5 5 -10 10 -10 6 0 10 5 10 10 0 6 -4 10 -10 10 -5 0
-10 -4 -10 -10z"/>
<path d="M2276 2117 c-4 -38 -5 -71 -2 -74 3 -4 6 8 6 25 0 16 3 32 8 34 4 2
5 21 2 43 -5 37 -6 35 -14 -28z"/>
<path d="M2449 2143 c-1 -5 -3 -19 -4 -33 -1 -14 -6 -33 -10 -44 -6 -14 -5
-18 6 -14 9 3 15 21 15 51 1 26 0 47 -2 47 -2 0 -5 -3 -5 -7z"/>
<path d="M2478 2080 c-2 -22 0 -40 4 -40 5 0 8 18 8 40 0 22 -2 40 -4 40 -2 0
-6 -18 -8 -40z"/>
<path d="M2445 1980 c3 -5 8 -10 11 -10 2 0 4 5 4 10 0 6 -5 10 -11 10 -5 0
-7 -4 -4 -10z"/>
<path d="M2991 1944 c0 -11 3 -14 6 -6 3 7 2 16 -1 19 -3 4 -6 -2 -5 -13z"/>
<path d="M3027 1809 c-7 -24 -1 -39 14 -39 11 0 12 30 0 48 -6 10 -10 8 -14
-9z"/>
</g>
</svg>
